<?xml version="1.0" encoding="iso-8859-1"?>
<!-- Generator: Adobe Illustrator 19.0.0, SVG Export Plug-In . SVG Version: 6.00 Build 0)  -->
<svg version="1.1" id="Layer_1" xmlns="http://www.w3.org/2000/svg" xmlns:xlink="http://www.w3.org/1999/xlink" x="0px" y="0px"
	 viewBox="0 0 512.001 512.001" style="enable-background:new 0 0 512.001 512.001;" xml:space="preserve">
<g>
	<g>
		<path d="M405.997,261.916V0H106.005v261.916H22.661l233.34,250.086L489.34,261.916H405.997z M98.336,294.807h40.561V32.892
			h234.209v261.916h40.561l-157.665,168.98L98.336,294.807z"/>
	</g>
</g>
<g>
	<g>
		<path d="M205.044,108.25c-22.146,0-40.164,18.018-40.164,40.165c0,22.146,18.018,40.164,40.164,40.164
			c22.146,0,40.164-18.018,40.164-40.164C245.208,126.268,227.19,108.25,205.044,108.25z M205.043,155.687
			c-4.009,0-7.272-3.263-7.272-7.272c0-4.011,3.263-7.273,7.272-7.273c4.01,0,7.272,3.263,7.272,7.273
			C212.315,152.425,209.053,155.687,205.043,155.687z"/>
	</g>
</g>
<g>
	<g>
		<path d="M306.958,206.121c-22.147,0-40.164,18.018-40.164,40.164c0,22.147,18.018,40.165,40.164,40.165
			s40.164-18.018,40.164-40.165C347.123,224.139,329.105,206.121,306.958,206.121z M306.958,253.559
			c-4.011,0-7.272-3.263-7.272-7.273c0-4.009,3.263-7.272,7.272-7.272c4.01,0,7.272,3.263,7.272,7.272
			C314.232,250.296,310.969,253.559,306.958,253.559z"/>
	</g>
</g>
<g>
	<g>
		
			<rect x="173.718" y="180.82" transform="matrix(0.6281 -0.7781 0.7781 0.6281 -58.2981 272.5502)" width="164.542" height="32.891"/>
	</g>
</g>
<g>
</g>
<g>
</g>
<g>
</g>
<g>
</g>
<g>
</g>
<g>
</g>
<g>
</g>
<g>
</g>
<g>
</g>
<g>
</g>
<g>
</g>
<g>
</g>
<g>
</g>
<g>
</g>
<g>
</g>
</svg>
