<?xml version="1.0" encoding="iso-8859-1"?>
<!-- Generator: Adobe Illustrator 19.0.0, SVG Export Plug-In . SVG Version: 6.00 Build 0)  -->
<svg version="1.1" id="Capa_1" xmlns="http://www.w3.org/2000/svg" xmlns:xlink="http://www.w3.org/1999/xlink" x="0px" y="0px"
	 viewBox="0 0 511.999 511.999" style="enable-background:new 0 0 511.999 511.999;" xml:space="preserve">
<g>
	<g>
		<path d="M509.049,454.867L379.881,325.698l-34.711-34.711c-1.889-1.888-4.45-2.949-7.121-2.949c-2.671,0-5.231,1.061-7.121,2.949
			l-12.848,12.848l-18.495-18.492c27.995-31.414,43.307-71.476,43.307-113.897c0-19.477-3.244-38.588-9.639-56.804
			c-1.843-5.247-7.586-8.009-12.838-6.165c-5.247,1.843-8.007,7.59-6.165,12.837c5.642,16.067,8.502,32.934,8.502,50.132
			c0,37.04-13.228,72.042-37.435,99.631l-19.474-19.47c19.049-22.361,29.439-50.46,29.439-80.161
			c0-23.683-6.709-46.704-19.401-66.576c-12.349-19.334-29.761-34.844-50.351-44.853c-16.939-8.236-35.138-12.413-54.089-12.413
			c-40.639,0-78.726,19.974-101.879,53.427c-14.369,20.739-21.964,45.088-21.964,70.415c0,14.215,2.392,28.147,7.104,41.398
			c17.472,49.312,64.386,82.443,116.738,82.443c29.702,0,57.801-10.39,80.161-29.44l19.472,19.469
			c-27.593,24.204-62.596,37.431-99.634,37.431c-62.815,0-118.155-37.798-140.988-96.301c-6.843-17.51-10.313-36.014-10.313-55
			c0-31.048,9.339-60.891,27.006-86.299c28.319-40.703,74.785-65.003,124.297-65.003c22.228,0,43.647,4.713,63.661,14.007
			c19.121,8.88,36.578,22.012,50.486,37.976c3.653,4.194,10.014,4.63,14.207,0.979c4.193-3.653,4.632-10.014,0.979-14.208
			c-15.974-18.337-35.215-32.809-57.189-43.014c-22.691-10.537-46.964-15.88-72.144-15.88c-56.1,0-108.746,27.529-140.83,73.643
			C10.586,102.45,0,136.268,0,171.446c0,21.506,3.935,42.477,11.695,62.329c12.407,31.792,33.83,58.938,61.952,78.502
			c28.786,20.026,62.603,30.611,97.795,30.611c42.419,0,82.483-15.311,113.902-43.305l18.495,18.493l-12.858,12.857
			c-1.888,1.888-2.95,4.45-2.95,7.122c0,2.672,1.061,5.232,2.951,7.122l34.721,34.71l129.158,129.158
			c1.967,1.967,4.544,2.949,7.121,2.949c2.577,0,5.154-0.983,7.12-2.948l39.948-39.938c1.889-1.888,2.951-4.45,2.951-7.12
			C511.999,459.318,510.938,456.756,509.049,454.867z M244.774,244.772c-0.001,0.001-0.003,0.002-0.004,0.004
			c-0.001,0.001-0.002,0.003-0.004,0.004c-17.193,17.191-39.359,27.599-63.255,29.887v-9.619c0-5.562-4.509-10.07-10.07-10.07
			s-10.07,4.508-10.07,10.07v9.591c-39.691-3.88-74.185-30.425-87.687-68.533c-2.825-7.942-4.633-16.181-5.443-24.59h9.6
			c5.561,0,10.07-4.508,10.07-10.07c0-5.562-4.509-10.07-10.07-10.07h-9.601c1.689-17.558,7.772-34.288,17.88-48.879
			c17.467-25.237,45.077-41.309,75.251-44.255v9.603c0,5.562,4.509,10.07,10.07,10.07s10.07-4.508,10.07-10.07v-9.614
			c12.257,1.169,24.064,4.478,35.213,9.9c32.982,16.032,54.515,47.348,57.929,83.246h-9.611c-5.561,0-10.07,4.508-10.07,10.07
			c0,5.562,4.509,10.07,10.07,10.07h9.618C272.374,205.414,261.966,227.58,244.774,244.772z M312.345,338.054l12.856-12.856
			c0.001-0.001,0.002-0.002,0.002-0.002s0.001-0.002,0.002-0.003l12.845-12.844l20.471,20.471l-25.7,25.706L312.345,338.054z
			 M461.984,487.684L347.066,372.765l25.699-25.705L487.69,461.985L461.984,487.684z"/>
	</g>
</g>
<g>
	<g>
		<path d="M213.696,161.376h-32.184v-54.61c0-5.562-4.509-10.07-10.07-10.07s-10.07,4.508-10.07,10.07v64.68
			c0,5.562,4.509,10.07,10.07,10.07h42.254c5.561,0,10.07-4.508,10.07-10.07C223.766,165.885,219.257,161.376,213.696,161.376z"/>
	</g>
</g>
<g>
	<g>
		<path d="M308.586,78.322c-12.959,0-12.981,20.14,0,20.14C321.545,98.462,321.567,78.322,308.586,78.322z"/>
	</g>
</g>
<g>
</g>
<g>
</g>
<g>
</g>
<g>
</g>
<g>
</g>
<g>
</g>
<g>
</g>
<g>
</g>
<g>
</g>
<g>
</g>
<g>
</g>
<g>
</g>
<g>
</g>
<g>
</g>
<g>
</g>
</svg>
