<?xml version="1.0" encoding="iso-8859-1"?>
<!-- Generator: Adobe Illustrator 19.0.0, SVG Export Plug-In . SVG Version: 6.00 Build 0)  -->
<svg version="1.1" id="Capa_1" xmlns="http://www.w3.org/2000/svg" xmlns:xlink="http://www.w3.org/1999/xlink" x="0px" y="0px"
	 viewBox="0 0 512 512" style="enable-background:new 0 0 512 512;" xml:space="preserve">
<g>
	<g>
		<path d="M509.182,247.243c-1.142-1.593-28.465-39.467-72.822-77.761c-50.621-43.721-113.014-78.803-179.86-78.803
			c-67.026,0-129.68,35.279-180.33,78.773C31.574,207.736,4,245.6,2.848,247.193c-3.797,5.26-3.797,12.354,0,17.614
			C4,266.4,31.574,304.264,76.171,342.548c50.633,43.48,113.292,78.773,180.33,78.773c66.883,0,129.283-35.121,179.86-78.803
			c44.356-38.294,71.679-76.168,72.822-77.761C512.939,259.517,512.939,252.482,509.182,247.243z M410.801,324.728
			c-40.894,34.089-95.31,66.535-154.3,66.535c-63.794,0-122.358-38.655-160.241-71.088c-29.678-25.399-51.721-51.109-62.221-64.165
			c10.48-13.022,32.456-38.611,62.15-64.062c41.703-35.742,98.629-71.211,160.313-71.211c63.774,0,122.047,38.645,159.71,71.058
			c29.527,25.419,51.41,51.149,61.81,64.205C467.018,269.786,443.137,297.771,410.801,324.728z"/>
	</g>
</g>
<g>
	<g>
		<path d="M255.499,150.796c-58.013,0-105.204,47.192-105.204,105.204s47.192,105.204,105.204,105.204
			c58.013,0,105.204-47.192,105.204-105.204S313.512,150.796,255.499,150.796z M255.499,331.146
			c-41.43,0-75.146-33.716-75.146-75.146s33.716-75.146,75.146-75.146c15.991,0,30.82,5.04,43.014,13.586l-45.348,68.032
			l-17.093-17.103c-5.871-5.861-15.39-5.861-21.261,0c-5.861,5.871-5.861,15.39,0,21.261l30.058,30.058
			c2.836,2.826,6.663,4.399,10.631,4.399c0.491,0,0.982-0.02,1.483-0.07c4.479-0.451,8.527-2.876,11.021-6.623l51.65-77.481
			c6.974,11.402,10.991,24.778,10.991,39.086C330.645,297.431,296.929,331.146,255.499,331.146z"/>
	</g>
</g>
<g>
</g>
<g>
</g>
<g>
</g>
<g>
</g>
<g>
</g>
<g>
</g>
<g>
</g>
<g>
</g>
<g>
</g>
<g>
</g>
<g>
</g>
<g>
</g>
<g>
</g>
<g>
</g>
<g>
</g>
</svg>
