<?xml version="1.0" encoding="iso-8859-1"?>
<!-- Generator: Adobe Illustrator 19.0.0, SVG Export Plug-In . SVG Version: 6.00 Build 0)  -->
<svg version="1.1" id="Capa_1" xmlns="http://www.w3.org/2000/svg" xmlns:xlink="http://www.w3.org/1999/xlink" x="0px" y="0px"
	 viewBox="0 0 448.288 448.288" style="enable-background:new 0 0 448.288 448.288;" xml:space="preserve">
<g>
	<g>
		<path d="M223.762,208.549c-3.788-18.657-20.202-32.059-39.24-32.04c-13.255,0-24-10.745-24-24s10.745-24,24-24s24,10.745,24,24h16
			c-0.024-19.001-13.389-35.373-32-39.2v-8.8h-16v8.8c-21.65,4.396-35.636,25.51-31.24,47.16
			c3.789,18.657,20.202,32.059,39.24,32.04c13.255,0,24,10.745,24,24s-10.745,24-24,24s-24-10.745-24-24h-16
			c0.024,19.001,13.389,35.373,32,39.2v8.8h16v-8.8C214.171,251.313,228.158,230.199,223.762,208.549z"/>
	</g>
</g>
<g>
	<g>
		<rect x="176.521" y="72.509" width="16" height="24"/>
	</g>
</g>
<g>
	<g>
		<rect x="176.521" y="272.509" width="16" height="24"/>
	</g>
</g>
<g>
	<g>
		<rect x="272.521" y="176.509" width="24" height="16"/>
	</g>
</g>
<g>
	<g>
		<rect x="72.521" y="176.509" width="24" height="16"/>
	</g>
</g>
<g>
	<g>
		<rect x="242.453" y="106.139" transform="matrix(0.7071 -0.7071 0.7071 0.7071 -6.0511 213.6699)" width="24.888" height="16"/>
	</g>
</g>
<g>
	<g>
		<rect x="101.644" y="246.907" transform="matrix(0.7071 -0.7071 0.7071 0.7071 -146.8312 155.3331)" width="24.888" height="16"/>
	</g>
</g>
<g>
	<g>
		<rect x="246.901" y="242.44" transform="matrix(0.7071 -0.7071 0.7071 0.7071 -105.5713 254.8959)" width="16" height="24.888"/>
	</g>
</g>
<g>
	<g>
		<rect x="106.133" y="101.662" transform="matrix(0.7071 -0.7071 0.7071 0.7071 -47.2568 114.1245)" width="16" height="24.888"/>
	</g>
</g>
<g>
	<g>
		<path d="M184.521,24.509c-88.366,0-160,71.634-160,160s71.634,160,160,160s160-71.634,160-160
			C344.42,96.186,272.845,24.611,184.521,24.509z M184.521,328.509c-79.529,0-144-64.471-144-144s64.471-144,144-144
			s144,64.471,144,144C328.429,264,264.012,328.417,184.521,328.509z"/>
	</g>
</g>
<g>
	<g>
		<path d="M445.945,411.989l-56.568-56.568c-7.287-6.93-18.057-8.729-27.2-4.544l-42.112-42.112
			c68.762-75.009,63.697-191.559-11.312-260.32S117.195-15.252,48.433,59.757s-63.697,191.559,11.312,260.32
			c70.443,64.576,178.565,64.576,249.008,0l42.056,42.032c-4.466,9.134-2.605,20.099,4.624,27.248l56.568,56.576
			c3.124,3.123,8.188,3.123,11.312,0l22.632-22.632C449.068,420.177,449.068,415.113,445.945,411.989z M184.521,352.509
			c-92.742-0.101-167.899-75.258-168-168c0-92.784,75.216-168,168-168s168,75.216,168,168S277.305,352.509,184.521,352.509z
			 M417.657,428.965l-50.912-50.92c-3.178-3.07-3.266-8.134-0.196-11.312c3.07-3.178,8.134-3.266,11.312-0.196
			c0.066,0.064,0.132,0.129,0.196,0.196l50.92,50.912L417.657,428.965z"/>
	</g>
</g>
<g>
</g>
<g>
</g>
<g>
</g>
<g>
</g>
<g>
</g>
<g>
</g>
<g>
</g>
<g>
</g>
<g>
</g>
<g>
</g>
<g>
</g>
<g>
</g>
<g>
</g>
<g>
</g>
<g>
</g>
</svg>
