<?xml version="1.0" encoding="iso-8859-1"?>
<!-- Generator: Adobe Illustrator 19.0.0, SVG Export Plug-In . SVG Version: 6.00 Build 0)  -->
<svg version="1.1" id="Layer_1" xmlns="http://www.w3.org/2000/svg" xmlns:xlink="http://www.w3.org/1999/xlink" x="0px" y="0px"
	 viewBox="0 0 512 512" style="enable-background:new 0 0 512 512;" xml:space="preserve">
<g>
	<g>
		<g>
			<path d="M85.689,48.961c-20.246,0-36.717,16.471-36.717,36.717s16.471,36.717,36.717,36.717
				c20.245,0,36.717-16.471,36.717-36.717S105.935,48.961,85.689,48.961z M85.689,101.996c-8.998,0-16.319-7.321-16.319-16.319
				c0-8.998,7.321-16.319,16.319-16.319s16.319,7.321,16.319,16.319C102.007,94.675,94.687,101.996,85.689,101.996z"/>
			<path d="M499.246,265.199L279.649,45.602c-6.533-6.533-14.809-10.757-23.936-12.218L50.494,0.564
				C36.533-1.667,22.791,2.786,12.793,12.783C2.795,22.781-1.658,36.523,0.574,50.485l32.822,205.218
				c1.458,9.124,5.683,17.401,12.218,23.936l219.596,219.596c8.233,8.233,19.177,12.765,30.82,12.765
				c11.641,0,22.586-4.534,30.819-12.765l172.398-172.398C516.238,309.843,516.239,282.193,499.246,265.199z M484.822,312.412
				L312.423,484.81c-9.04,9.044-23.751,9.039-32.789,0L60.038,265.216c-3.477-3.477-5.725-7.88-6.501-12.734L20.717,47.263
				c-1.188-7.428,1.181-14.738,6.5-20.058c4.418-4.417,10.208-6.8,16.3-6.8c1.242,0,2.499,0.1,3.756,0.301l205.217,32.82
				c4.856,0.778,9.26,3.025,12.735,6.501l219.597,219.597v-0.001C493.861,288.663,493.861,303.372,484.822,312.412z"/>
		</g>
	</g>
</g>
<g>
	<g>
		<path d="M323.401,188.615c-3.985-3.982-10.441-3.982-14.425,0L188.627,308.965c-3.983,3.984-3.983,10.442,0,14.425
			c1.991,1.991,4.602,2.987,7.212,2.987c2.61,0,5.22-0.995,7.213-2.987L323.401,203.04
			C327.384,199.056,327.384,192.598,323.401,188.615z"/>
	</g>
</g>
<g>
	<g>
		<path d="M364.198,229.412c-3.985-3.982-10.441-3.982-14.425,0l-3.06,3.06c-3.983,3.984-3.983,10.442,0,14.425
			c1.992,1.991,4.601,2.987,7.212,2.987c2.61,0,5.22-0.995,7.213-2.987l3.06-3.06C368.181,239.852,368.181,233.394,364.198,229.412z
			"/>
	</g>
</g>
<g>
	<g>
		<path d="M337.68,255.929c-3.985-3.982-10.441-3.982-14.425,0l-93.832,93.832c-3.983,3.984-3.983,10.442,0,14.425
			c1.991,1.991,4.602,2.987,7.212,2.987c2.61,0,5.22-0.995,7.213-2.987l93.832-93.832
			C341.663,266.37,341.663,259.912,337.68,255.929z"/>
	</g>
</g>
<g>
</g>
<g>
</g>
<g>
</g>
<g>
</g>
<g>
</g>
<g>
</g>
<g>
</g>
<g>
</g>
<g>
</g>
<g>
</g>
<g>
</g>
<g>
</g>
<g>
</g>
<g>
</g>
<g>
</g>
</svg>
