<?xml version="1.0" encoding="iso-8859-1"?>
<!-- Generator: Adobe Illustrator 19.0.0, SVG Export Plug-In . SVG Version: 6.00 Build 0)  -->
<svg version="1.1" id="Capa_1" xmlns="http://www.w3.org/2000/svg" xmlns:xlink="http://www.w3.org/1999/xlink" x="0px" y="0px"
	 viewBox="0 0 512 512" style="enable-background:new 0 0 512 512;" xml:space="preserve">
<g>
	<g>
		<path d="M255.999,91.643c-90.423,0-163.989,73.56-163.989,163.979c0,90.423,73.565,163.989,163.989,163.989
			c90.418,0,163.979-73.565,163.979-163.989C419.978,165.203,346.418,91.643,255.999,91.643z M266.048,399.157V384.58
			c0-5.55-4.5-10.049-10.049-10.049c-5.549,0-10.049,4.499-10.049,10.049v14.577c-71.346-4.946-128.534-62.131-133.485-133.475
			h14.576c5.549,0,10.049-4.499,10.049-10.049c0-5.55-4.5-10.049-10.049-10.049h-14.577c4.942-71.35,62.134-128.54,133.486-133.486
			v14.566c0,5.55,4.5,10.049,10.049,10.049c5.549,0,10.049-4.499,10.049-10.049v-14.566
			c71.344,4.946,128.528,62.132,133.475,133.475h-14.566c-5.549,0-10.049,4.499-10.049,10.049c0,5.55,4.5,10.049,10.049,10.049
			h14.566C394.577,337.02,337.392,394.209,266.048,399.157z"/>
	</g>
</g>
<g>
	<g>
		<path d="M376.79,214.328c-9.382-27.452-28.108-51.133-52.728-66.682c-4.692-2.964-10.899-1.562-13.863,3.13
			c-2.963,4.693-1.562,10.899,3.131,13.862c20.755,13.108,36.538,33.063,44.441,56.189c1.427,4.175,5.33,6.802,9.508,6.802
			c1.077,0,2.174-0.175,3.25-0.543C375.783,225.293,378.585,219.58,376.79,214.328z"/>
	</g>
</g>
<g>
	<g>
		<path d="M255.999,245.571c-9.026,0-16.37-7.344-16.37-16.37c0-9.026,7.344-16.37,16.37-16.37h26.419
			c5.549,0,10.049-4.499,10.049-10.049c0-5.55-4.5-10.049-10.049-10.049h-16.37v-11.486c0-5.55-4.5-10.049-10.049-10.049
			c-5.549,0-10.049,4.499-10.049,10.049v12.906c-15.235,4.375-26.419,18.425-26.419,35.048c0,20.108,16.359,36.468,36.468,36.468
			c9.026,0,16.37,7.344,16.37,16.37c0,9.033-7.343,16.381-16.37,16.381h-26.419c-5.549,0-10.049,4.499-10.049,10.049
			s4.5,10.049,10.049,10.049h16.37v11.476c0,5.55,4.5,10.049,10.049,10.049c5.549,0,10.049-4.499,10.049-10.049v-12.896
			c15.235-4.376,26.419-18.431,26.419-35.059C292.467,261.931,276.108,245.571,255.999,245.571z"/>
	</g>
</g>
<g>
	<g>
		<path d="M446.24,162.137c3.034,0,6.032-1.369,8.01-3.97l10.903-14.35c25.742-33.886,19.124-82.401-14.756-108.15L424.099,15.69
			c-33.883-25.738-82.393-19.113-108.14,14.764l-10.913,14.36c-1.612,2.122-2.316,4.798-1.956,7.439
			c0.108,0.787,0.317,1.548,0.6,2.276c-15.316-3.632-31.281-5.564-47.691-5.564c-16.41,0-32.376,1.932-47.691,5.564
			c0.283-0.729,0.492-1.489,0.6-2.276c0.36-2.641-0.344-5.317-1.956-7.439l-10.913-14.36C170.294-3.424,121.784-10.048,87.901,15.69
			l-26.3,19.978c-33.878,25.747-40.496,74.263-14.754,108.149l10.903,14.35c1.978,2.602,4.975,3.97,8.01,3.97
			c2.117,0,4.254-0.667,6.072-2.048l1.593-1.21c-15.367,28.881-24.091,61.809-24.091,96.742c0,61.5,27.012,116.801,69.783,154.692
			c-22.577,5.488-39.395,25.865-39.395,50.106c0,28.443,23.135,51.581,51.571,51.581c28.443,0,51.581-23.139,51.581-51.581
			c0-4.151-0.506-8.185-1.437-12.055c23.142,8.984,48.285,13.924,74.563,13.924c26.278,0,51.42-4.94,74.563-13.924
			c-0.931,3.87-1.437,7.904-1.437,12.055c0,28.443,23.139,51.581,51.581,51.581c28.437,0,51.571-23.139,51.571-51.581
			c0-24.242-16.818-44.618-39.395-50.106c42.771-37.891,69.783-93.192,69.783-154.691c0-34.932-8.724-67.862-24.091-96.742
			l1.593,1.21C441.986,161.47,444.122,162.137,446.24,162.137z M67.675,138.006l-4.823-6.348
			C43.811,106.595,48.705,70.713,73.76,51.671l26.298-19.977c10.299-7.823,22.423-11.604,34.459-11.604
			c17.246,0,34.305,7.767,45.521,22.525l4.833,6.358L67.675,138.006z M131.293,491.902c-17.356,0-31.473-14.124-31.473-31.483
			c0-17.354,14.119-31.473,31.473-31.473c17.36,0,31.483,14.119,31.483,31.473C162.776,477.779,148.652,491.902,131.293,491.902z
			 M412.18,460.419c0,17.36-14.119,31.483-31.473,31.483c-17.36,0-31.483-14.124-31.483-31.483
			c0-17.355,14.124-31.473,31.483-31.473C398.061,428.946,412.18,443.064,412.18,460.419z M442.568,255.621
			c0,102.875-83.695,186.569-186.569,186.569S69.43,358.495,69.43,255.621c0-102.869,83.695-186.559,186.569-186.559
			S442.568,152.752,442.568,255.621z M327.129,48.973l4.833-6.358c19.042-25.057,54.919-29.956,79.98-10.921l26.296,19.975
			c25.057,19.043,29.952,54.927,10.91,79.989l-4.823,6.349L327.129,48.973z"/>
	</g>
</g>
<g>
	<g>
		<path d="M291.673,132.381c-12.932,0-12.953,20.098,0,20.098C304.605,152.479,304.626,132.381,291.673,132.381z"/>
	</g>
</g>
<g>
</g>
<g>
</g>
<g>
</g>
<g>
</g>
<g>
</g>
<g>
</g>
<g>
</g>
<g>
</g>
<g>
</g>
<g>
</g>
<g>
</g>
<g>
</g>
<g>
</g>
<g>
</g>
<g>
</g>
</svg>
