<?xml version="1.0" encoding="iso-8859-1"?>
<!-- Generator: Adobe Illustrator 19.0.0, SVG Export Plug-In . SVG Version: 6.00 Build 0)  -->
<svg version="1.1" id="Layer_1" xmlns="http://www.w3.org/2000/svg" xmlns:xlink="http://www.w3.org/1999/xlink" x="0px" y="0px"
	 viewBox="0 0 512 512" style="enable-background:new 0 0 512 512;" xml:space="preserve">
<g>
	<g>
		<path d="M512,256l-44.285-48.343l18.977-62.763l-60.93-24.254L415.626,55.85l-65.416,4.481L312.962,6.364L256,38.888    L199.038,6.364l-37.247,53.967l-65.416-4.482l-10.137,64.789l-60.93,24.254l18.977,62.763L0,256l44.285,48.343l-18.977,62.763    l60.93,24.254l10.137,64.789l65.416-4.481l37.247,53.967L256,473.112l56.962,32.522l37.247-53.967l65.416,4.482l10.136-64.789    l60.93-24.254l-18.977-62.763L512,256z"/>
	</g>
</g>
<g>
	<g>

			<text x="60" y="270" font-family="Verdana" font-weight="bold" font-size="90" fill="white">+100%</text>
	</g>
</g>
</svg>
