<?xml version="1.0" encoding="iso-8859-1"?>
<!-- Generator: Adobe Illustrator 19.0.0, SVG Export Plug-In . SVG Version: 6.00 Build 0)  -->
<svg version="1.1" id="Capa_1" xmlns="http://www.w3.org/2000/svg" xmlns:xlink="http://www.w3.org/1999/xlink" x="0px" y="0px"
	 viewBox="0 0 512 512" style="enable-background:new 0 0 512 512;" xml:space="preserve">
<g>
	<g>
		<path d="M435.553,286.345c1.133-0.279,2.302-0.551,3.548-0.809c5.433-1.12,8.929-6.432,7.808-11.865
			c-1.119-5.434-6.429-8.928-11.865-7.809c-9.237,1.904-16.324,4.426-22.31,7.941c-2.428,1.428-4.637,3.055-6.651,4.826
			c-1.345,0.144-2.709,0.339-4.083,0.588c-9.936,1.807-19.295,6.219-26.692,12.43c-5.43-7.35-11.722-14.285-18.843-20.696
			c-27.385-24.655-63.94-38.855-102.933-39.982c-19.595-0.573-38.732,2.104-56.931,7.947l-59.771-35.584
			c-3.457-2.059-7.814-1.854-11.064,0.522c-3.25,2.375-4.769,6.462-3.857,10.383l14.117,60.693
			c-11.958,11.714-21.554,25.335-28.11,39.902l-26.142,3.916c-4.474,0.67-7.947,4.247-8.484,8.739l-8.336,69.603
			c-0.654,5.477,3.23,10.459,8.703,11.157l34.499,4.403c12.735,28.08,35.785,51.276,65.784,66.199v23.107
			c0,5.547,4.498,10.044,10.044,10.044h62.804c5.546,0,10.044-4.497,10.044-10.044v-6.09c2.768-0.135,5.532-0.335,8.286-0.603v6.691
			c0,5.547,4.498,10.044,10.044,10.044h62.804c5.546,0,10.044-4.497,10.044-10.044v-38.748
			c32.738-25.184,51.423-61.223,51.453-99.625c0.017-19.096-4.597-37.631-13.356-54.605c2.459-2.5,5.424-4.647,8.721-6.344
			c0.339,7.132,3.588,13.882,9.264,18.524c4.782,3.9,10.921,5.888,16.97,5.888c5.087,0,10.112-1.406,14.211-4.263
			c8.336-5.803,11.598-16.495,7.939-25.976C441.695,292.854,439.026,289.274,435.553,286.345z M379.373,363.564
			c-0.026,33.46-17.25,64.96-47.253,86.42c-2.637,1.885-4.201,4.927-4.201,8.169v33.757h-42.716v-8.095
			c0-2.953-1.3-5.757-3.554-7.665c-2.254-1.908-5.236-2.726-8.146-2.241c-8.221,1.375-16.649,2.072-25.049,2.072
			c-0.5,0-0.989-0.009-1.48-0.018c-2.693-0.066-5.298,0.984-7.222,2.873c-1.924,1.888-3.008,4.471-3.008,7.168v5.906h-42.716
			v-19.425c0-3.959-2.325-7.549-5.939-9.166c-30.099-13.479-52.688-36.068-63.608-63.607c-1.348-3.4-4.437-5.797-8.065-6.26
			l-30.328-3.871l6.239-52.102l24.144-3.617c3.552-0.532,6.551-2.922,7.862-6.266c6.068-15.475,16.27-29.941,29.503-41.835
			c2.722-2.447,3.898-6.18,3.069-9.745l-10.085-43.361l43.475,25.883c2.563,1.526,5.671,1.833,8.48,0.841
			c17.197-6.069,35.422-8.869,54.178-8.33C322.716,253.065,379.428,303.54,379.373,363.564L379.373,363.564z M423.791,306.299
			c-1.445,1.007-5.101,0.845-6.995-0.701c-1.925-1.574-2.213-4.178-1.644-6.06c0.083-0.277,0.185-0.555,0.301-0.834
			c1.018,0.162,1.987,0.392,2.901,0.689c3.405,1.107,5.547,3.158,6.107,4.62C424.69,304.61,424.636,305.712,423.791,306.299z"/>
	</g>
</g>
<g>
	<g>
		<path d="M282.561,269.232c-11.013-3.036-22.413-4.758-33.886-5.117c-9.907-0.309-19.8,0.371-29.415,2.017
			c-5.467,0.936-9.141,6.127-8.205,11.594c0.935,5.467,6.12,9.142,11.593,8.206c8.293-1.42,16.835-2.004,25.4-1.739
			c9.879,0.309,19.694,1.791,29.172,4.404c0.894,0.247,1.792,0.364,2.676,0.364c4.406,0,8.449-2.923,9.677-7.377
			C291.048,276.236,287.908,270.706,282.561,269.232z"/>
	</g>
</g>
<g>
	<g>
		<path d="M178.117,309.538c-13.735,0-24.909,11.174-24.909,24.908c0,5.547,4.498,10.044,10.044,10.044
			c5.546,0,10.044-4.497,10.044-10.044c0-2.658,2.162-4.821,4.821-4.821s4.821,2.162,4.821,4.821
			c0,5.547,4.498,10.044,10.044,10.044c5.546,0,10.044-4.497,10.044-10.044C203.025,320.712,191.852,309.538,178.117,309.538z"/>
	</g>
</g>
<g>
	<g>
		<path d="M253.244,95.988c-30.604,0-55.502,24.902-55.502,55.512c0,30.603,24.897,55.502,55.502,55.502
			c30.61,0,55.513-24.898,55.513-55.502C308.757,120.891,283.854,95.988,253.244,95.988z M253.244,186.914
			c-19.527,0-35.414-15.886-35.414-35.414c0-19.533,15.887-35.424,35.414-35.424c19.533,0,35.425,15.891,35.425,35.424
			C288.669,171.027,272.778,186.914,253.244,186.914z"/>
	</g>
</g>
<g>
	<g>
		<path d="M295.016,0c-5.546,0-10.044,4.497-10.044,10.044v73.189c0,5.547,4.497,10.044,10.044,10.044
			c5.546,0,10.044-4.497,10.044-10.044V10.044C305.06,4.497,300.562,0,295.016,0z"/>
	</g>
</g>
<g>
	<g>
		<path d="M253.244,20.218c-5.546,0-10.044,4.497-10.044,10.044v43.339c0,5.547,4.498,10.044,10.044,10.044
			c5.546,0,10.044-4.497,10.044-10.044V30.262C263.288,24.715,258.79,20.218,253.244,20.218z"/>
	</g>
</g>
<g>
	<g>
		<path d="M211.482,0c-5.546,0-10.044,4.497-10.044,10.044v73.189c0,5.547,4.497,10.044,10.044,10.044
			c5.546,0,10.044-4.497,10.044-10.044V10.044C221.526,4.497,217.028,0,211.482,0z"/>
	</g>
</g>
<g>
	<g>
		<path d="M267.647,143.977h-4.359v-7.292c0-5.547-4.498-10.044-10.044-10.044c-5.546,0-10.044,4.497-10.044,10.044v17.336
			c0,5.547,4.498,10.044,10.044,10.044h14.403c5.546,0,10.044-4.497,10.044-10.044C277.691,148.474,273.193,143.977,267.647,143.977
			z"/>
	</g>
</g>
<g>
	<g>
		<path d="M307.069,276.705c-12.925,0-12.946,20.087,0,20.087C319.994,296.793,320.015,276.705,307.069,276.705z"/>
	</g>
</g>
<g>
</g>
<g>
</g>
<g>
</g>
<g>
</g>
<g>
</g>
<g>
</g>
<g>
</g>
<g>
</g>
<g>
</g>
<g>
</g>
<g>
</g>
<g>
</g>
<g>
</g>
<g>
</g>
<g>
</g>
</svg>
